<svg xmlns="http://www.w3.org/2000/svg" viewBox="0 0 1320 1460" width="1320" height="1460"><g stroke-linecap="round"><path d="m10 730 291-320 289 320-289 320" fill="#1e293b" fill-rule="evenodd"/><path d="M10 730c81.51-89.64 163.02-179.27 291-320M10 730c88.34-97.14 176.67-194.28 291-320m0 0c112.63 124.71 225.26 249.43 289 320M301 410c64.25 71.14 128.49 142.28 289 320m0 0c-114.9 127.22-229.8 254.45-289 320m289-320-289 320m0 0c-73.05-80.33-146.1-160.65-291-320m291 320C194.9 933.33 88.8 816.65 10 730" stroke="transparent" fill="none"/></g><g stroke-opacity=".8" fill-opacity=".8" stroke-linecap="round"><path d="M202.75 250c55.45-60.97 110.89-121.94 145.5-160C421 10 421 10 493.75 90c53.55 59.71 107.1 119.41 143.5 160 72.75 80 72.75 80 0 160-48.65 54.24-97.3 108.49-143.5 160-72.75 80-72.75 80-145.5 0-43.34-47.66-86.67-95.31-145.5-160-72.75-80-72.75-80 0-160" fill="#d0bfff"/><path d="M202.75 250c53.93-59.3 107.85-118.6 145.5-160m-145.5 160 145.5-160m0 0C421 10 421 10 493.75 90m-145.5 0C421 10 421 10 493.75 90m0 0c47.98 53.49 95.95 106.98 143.5 160M493.75 90c53.47 59.61 106.93 119.23 143.5 160m0 0c72.75 80 72.75 80 0 160m0-160c72.75 80 72.75 80 0 160m0 0c-45.3 50.51-90.6 101.02-143.5 160m143.5-160c-30.58 34.1-61.16 68.19-143.5 160m0 0c-72.75 80-72.75 80-145.5 0m145.5 0c-72.75 80-72.75 80-145.5 0m0 0c-57.61-63.35-115.22-126.71-145.5-160m145.5 160c-50.74-55.8-101.49-111.6-145.5-160m0 0c-72.75-80-72.75-80 0-160m0 160c-72.75-80-72.75-80 0-160" stroke="transparent" fill="none"/></g><g stroke-linecap="round"><path d="m730 730 291-320 289 320-289 320" fill="#1e293b" fill-rule="evenodd"/><path d="M730 730c97.48-107.2 194.97-214.4 291-320M730 730c90.4-99.41 180.8-198.82 291-320m0 0c72.61 80.4 145.21 160.79 289 320m-289-320c65.62 72.66 131.24 145.32 289 320m0 0c-111.99 124.01-223.99 248.01-289 320m289-320c-80.63 89.28-161.26 178.56-289 320m0 0c-86.78-95.43-173.57-190.86-291-320m291 320L730 730" stroke="transparent" fill="none"/></g><g stroke-linecap="round"><path d="M682.75 250c33.39-36.72 66.79-73.44 145.5-160C901 10 901 10 973.75 90c38.09 42.46 76.17 84.93 143.5 160 72.75 80 72.75 80 0 160-49.06 54.71-98.13 109.41-143.5 160-72.75 80-72.75 80-145.5 0l-145.5-160c-72.75-80-72.75-80 0-160" fill="#6741d9"/><path d="M682.75 250c36.76-40.42 73.52-80.84 145.5-160m-145.5 160c54.8-60.26 109.6-120.52 145.5-160m0 0C901 10 901 10 973.75 90m-145.5 0C901 10 901 10 973.75 90m0 0c30.21 33.69 60.43 67.37 143.5 160M973.75 90c55.73 62.14 111.47 124.29 143.5 160m0 0c72.75 80 72.75 80 0 160m0-160c72.75 80 72.75 80 0 160m0 0c-46.41 51.75-92.82 103.5-143.5 160m143.5-160c-33.47 37.32-66.94 74.64-143.5 160m0 0c-72.75 80-72.75 80-145.5 0m145.5 0c-72.75 80-72.75 80-145.5 0m0 0c-52.05-57.24-104.1-114.47-145.5-160m145.5 160c-52.34-57.56-104.69-115.12-145.5-160m0 0c-72.75-80-72.75-80 0-160m0 160c-72.75-80-72.75-80 0-160" stroke="transparent" fill="none"/></g><g stroke-opacity=".8" fill-opacity=".8" stroke-linecap="round"><path d="M682.75 1050c40.67-44.73 81.35-89.46 145.5-160 72.75-80 72.75-80 145.5 0 48.8 54.41 97.6 108.82 143.5 160 72.75 80 72.75 80 0 160-32.14 35.84-64.28 71.67-143.5 160-72.75 80-72.75 80-145.5 0-43.1-47.39-86.2-94.79-145.5-160-72.75-80-72.75-80 0-160" fill="#d0bfff"/><path d="M682.75 1050c39.66-43.61 79.32-87.22 145.5-160m-145.5 160c56.74-62.39 113.47-124.78 145.5-160m0 0c72.75-80 72.75-80 145.5 0m-145.5 0c72.75-80 72.75-80 145.5 0m0 0c52.52 58.55 105.03 117.11 143.5 160m-143.5-160c41.46 46.23 82.93 92.46 143.5 160m0 0c72.75 80 72.75 80 0 160m0-160c72.75 80 72.75 80 0 160m0 0c-47.03 52.44-94.06 104.87-143.5 160m143.5-160c-47.03 52.44-94.07 104.88-143.5 160m0 0c-72.75 80-72.75 80-145.5 0m145.5 0c-72.75 80-72.75 80-145.5 0m0 0c-32.47-35.7-64.93-71.4-145.5-160m145.5 160c-54.55-59.98-109.09-119.96-145.5-160m0 0c-72.75-80-72.75-80 0-160m0 160c-72.75-80-72.75-80 0-160" stroke="transparent" fill="none"/></g><g stroke-linecap="round"><path d="m730 730 291-320 289 320-289 320" fill="#1e293b" fill-rule="evenodd"/><path d="m730 730 291-320M730 730c86.98-95.65 173.96-191.3 291-320m0 0c74.49 82.48 148.99 164.97 289 320m-289-320c94.96 105.14 189.91 210.28 289 320m0 0c-83.38 92.32-166.75 184.64-289 320m289-320c-85.94 95.16-171.88 190.31-289 320m0 0c-85.18-93.66-170.35-187.33-291-320m291 320L730 730" stroke="transparent" fill="none"/></g><g stroke-linecap="round"><path d="M202.75 1050c58.07-63.85 116.14-127.71 145.5-160 72.75-80 72.75-80 145.5 0 34.87 38.88 69.73 77.75 143.5 160 72.75 80 72.75 80 0 160-53.21 59.33-106.43 118.66-143.5 160-72.75 80-72.75 80-145.5 0-51.12-56.21-102.24-112.42-145.5-160-72.75-80-72.75-80 0-160" fill="#6741d9"/><path d="M202.75 1050c54.82-60.29 109.65-120.57 145.5-160m-145.5 160c34.68-38.14 69.36-76.27 145.5-160m0 0c72.75-80 72.75-80 145.5 0m-145.5 0c72.75-80 72.75-80 145.5 0m0 0c47.3 52.74 94.6 105.48 143.5 160m-143.5-160 143.5 160m0 0c72.75 80 72.75 80 0 160m0-160c72.75 80 72.75 80 0 160m0 0c-37.03 41.28-74.05 82.57-143.5 160m143.5-160c-29.91 33.35-59.82 66.7-143.5 160m0 0c-72.75 80-72.75 80-145.5 0m145.5 0c-72.75 80-72.75 80-145.5 0m0 0c-38.86-42.74-77.73-85.47-145.5-160m145.5 160-145.5-160m0 0c-72.75-80-72.75-80 0-160m0 160c-72.75-80-72.75-80 0-160" stroke="transparent" fill="none"/></g><g stroke-linecap="round"><path d="m10 730 291-320 289 320-289 320" fill="#1e293b" fill-rule="evenodd"/><path d="m10 730 291-320M10 730c110.87-121.92 221.74-243.84 291-320m0 0 289 320M301 410c58.62 64.91 117.25 129.82 289 320m0 0c-70.61 78.18-141.22 156.37-289 320m289-320c-68.45 75.8-136.91 151.6-289 320m0 0L10 730m291 320c-76.71-84.36-153.42-168.71-291-320" stroke="transparent" fill="none"/></g></svg>